HIERARCHY
ROOT newVegas:Hips
{
	OFFSET 0.000000 96.479958 0.000000
	CHANNELS 6 Xposition Yposition Zposition Xrotation Yrotation Zrotation
	JOINT newVegas:Pelvis
	{
		OFFSET 0.000000 0.000000 0.000000
		CHANNELS 3 Xrotation Yrotation Zrotation
		JOINT newVegas:LeftUpLeg
		{
			OFFSET 18.735201 -5.666702 -4.541200
			CHANNELS 3 Xrotation Yrotation Zrotation
			JOINT newVegas:LeftLeg
			{
				OFFSET -0.021200 -31.938179 0.493100
				CHANNELS 3 Xrotation Yrotation Zrotation
				JOINT newVegas:LeftFoot
				{
					OFFSET 0.021200 -31.938179 -4.336299
					CHANNELS 3 Xrotation Yrotation Zrotation
					JOINT newVegas:LeftToeBase
					{
						OFFSET 0.943001 -26.722000 15.023500
						CHANNELS 3 Xrotation Yrotation Zrotation
						End Site
						{
							OFFSET 0.000000 30.670183 0.000000
						}
					}
				}
				JOINT newVegas:Left_PantLeg
				{
					OFFSET 0.663870 -9.044666 -1.108900
					CHANNELS 3 Xrotation Yrotation Zrotation
					End Site
					{
						OFFSET 1.415995 20.635357 0.000000
					}
				}
			}
		}
		JOINT newVegas:RightUpLeg
		{
			OFFSET -18.735201 -5.666702 -4.541200
			CHANNELS 3 Xrotation Yrotation Zrotation
			JOINT newVegas:RightLeg
			{
				OFFSET 0.018946 -31.938133 0.493100
				CHANNELS 3 Xrotation Yrotation Zrotation
				JOINT newVegas:RightFoot
				{
					OFFSET -0.018946 -31.938126 -4.336299
					CHANNELS 3 Xrotation Yrotation Zrotation
					JOINT newVegas:RightToeBase
					{
						OFFSET -0.943001 -26.722004 15.023500
						CHANNELS 3 Xrotation Yrotation Zrotation
						End Site
						{
							OFFSET 0.000000 30.670187 0.000000
						}
					}
				}
				JOINT newVegas:Right_PantLeg
				{
					OFFSET -0.661674 -9.044716 -1.108900
					CHANNELS 3 Xrotation Yrotation Zrotation
					End Site
					{
						OFFSET -1.415958 20.635269 0.000000
					}
				}
			}
		}
	}
	JOINT newVegas:Spine
	{
		OFFSET 0.000000 10.199997 -0.299500
		CHANNELS 3 Xrotation Yrotation Zrotation
		JOINT newVegas:Spine1
		{
			OFFSET 0.000000 11.900002 -1.516600
			CHANNELS 3 Xrotation Yrotation Zrotation
			JOINT newVegas:Spine2
			{
				OFFSET 0.000000 13.600006 -2.842500
				CHANNELS 3 Xrotation Yrotation Zrotation
				JOINT newVegas:Neck
				{
					OFFSET 0.000000 9.624100 -2.890100
					CHANNELS 3 Xrotation Yrotation Zrotation
					JOINT newVegas:Head
					{
						OFFSET 0.000000 14.068802 -1.351900
						CHANNELS 3 Xrotation Yrotation Zrotation
						JOINT newVegas:Hair_Back
						{
							OFFSET 0.000000 3.231903 -17.524799
							CHANNELS 3 Xrotation Yrotation Zrotation
							End Site
							{
								OFFSET 0.000000 19.849884 0.000000
							}
						}
						JOINT newVegas:Hair_Front
						{
							OFFSET 0.000000 31.260406 4.573800
							CHANNELS 3 Xrotation Yrotation Zrotation
							JOINT newVegas:Hair_Front1
							{
								OFFSET 0.000000 2.284103 11.993300
								CHANNELS 3 Xrotation Yrotation Zrotation
								JOINT newVegas:Hair_Front2
								{
									OFFSET 0.000000 2.284103 11.993300
									CHANNELS 3 Xrotation Yrotation Zrotation
									End Site
									{
										OFFSET 0.000000 12.208862 0.000000
									}
								}
							}
						}
						JOINT newVegas:Jowel
						{
							OFFSET 0.000000 -7.458206 6.864100
							CHANNELS 3 Xrotation Yrotation Zrotation
							End Site
							{
								OFFSET 0.000000 19.849884 0.000000
							}
						}
					}
				}
				JOINT newVegas:LeftShoulder
				{
					OFFSET 15.263000 10.923401 -0.547700
					CHANNELS 3 Xrotation Yrotation Zrotation
					JOINT newVegas:LeftArm
					{
						OFFSET 25.438599 -2.830597 -13.032500
						CHANNELS 3 Xrotation Yrotation Zrotation
						JOINT newVegas:LeftForeArm
						{
							OFFSET 29.960503 0.000000 0.000000
							CHANNELS 3 Xrotation Yrotation Zrotation
							JOINT newVegas:LeftHand
							{
								OFFSET 27.849251 0.000000 0.000000
								CHANNELS 3 Xrotation Yrotation Zrotation
								JOINT newVegas:LeftHandThumb1
								{
									OFFSET 4.487587 -3.305161 6.305391
									CHANNELS 3 Xrotation Yrotation Zrotation
									JOINT newVegas:LeftHandThumb2
									{
										OFFSET 5.480453 -3.164139 3.164143
										CHANNELS 3 Xrotation Yrotation Zrotation
										JOINT newVegas:LeftHandThumb3
										{
											OFFSET 5.159721 -2.978973 2.978967
											CHANNELS 3 Xrotation Yrotation Zrotation
											End Site
											{
												OFFSET 2.494507 5.926697 1.738678
											}
										}
									}
								}
								JOINT newVegas:LeftHandIndex1
								{
									OFFSET 18.578728 -0.527832 5.208049
									CHANNELS 3 Xrotation Yrotation Zrotation
									JOINT newVegas:LeftHandIndex2
									{
										OFFSET 3.192009 0.000000 0.000000
										CHANNELS 3 Xrotation Yrotation Zrotation
										JOINT newVegas:LeftHandIndex3
										{
											OFFSET 3.835129 0.000000 0.000000
											CHANNELS 3 Xrotation Yrotation Zrotation
											End Site
											{
												OFFSET -0.034599 3.816971 0.371180
											}
										}
									}
								}
								JOINT newVegas:LeftHandMiddle1
								{
									OFFSET 18.476105 0.000000 0.000000
									CHANNELS 3 Xrotation Yrotation Zrotation
									JOINT newVegas:LeftHandMiddle2
									{
										OFFSET 3.324875 0.000000 0.000000
										CHANNELS 3 Xrotation Yrotation Zrotation
										JOINT newVegas:LeftHandMiddle3
										{
											OFFSET 4.596550 0.000000 0.000000
											CHANNELS 3 Xrotation Yrotation Zrotation
											End Site
											{
												OFFSET 0.057701 4.578827 0.399218
											}
										}
									}
								}
								JOINT newVegas:LeftHandRing1
								{
									OFFSET 17.732719 0.121887 -4.201567
									CHANNELS 3 Xrotation Yrotation Zrotation
									JOINT newVegas:LeftHandRing2
									{
										OFFSET 2.733170 0.000000 0.000000
										CHANNELS 3 Xrotation Yrotation Zrotation
										JOINT newVegas:LeftHandRing3
										{
											OFFSET 3.178268 0.000000 0.000000
											CHANNELS 3 Xrotation Yrotation Zrotation
											End Site
											{
												OFFSET 0.119102 3.170624 0.185394
											}
										}
									}
								}
								JOINT newVegas:LeftHandPinky1
								{
									OFFSET 15.989624 -0.606689 -7.535461
									CHANNELS 3 Xrotation Yrotation Zrotation
									JOINT newVegas:LeftHandPinky2
									{
										OFFSET 2.538986 0.000000 0.000000
										CHANNELS 3 Xrotation Yrotation Zrotation
										JOINT newVegas:LeftHandPinky3
										{
											OFFSET 2.593102 0.000000 0.000000
											CHANNELS 3 Xrotation Yrotation Zrotation
											End Site
											{
												OFFSET -0.150902 2.584198 0.152708
											}
										}
									}
								}
							}
							JOINT newVegas:Left_Sleeve
							{
								OFFSET 0.267448 -0.649796 0.577675
								CHANNELS 3 Xrotation Yrotation Zrotation
								End Site
								{
									OFFSET 0.000000 15.991241 0.000000
								}
							}
							JOINT newVegas:Left_CapeC
							{
								OFFSET 15.715958 -8.608795 -6.935905
								CHANNELS 3 Xrotation Yrotation Zrotation
								JOINT newVegas:Left_CapeC1
								{
									OFFSET 0.000000 -8.688499 0.000000
									CHANNELS 3 Xrotation Yrotation Zrotation
									End Site
									{
										OFFSET 0.000000 8.688499 0.000000
									}
								}
							}
						}
						JOINT newVegas:Left_CapeB
						{
							OFFSET 26.118385 -8.608795 -7.079235
							CHANNELS 3 Xrotation Yrotation Zrotation
							JOINT newVegas:Left_CapeB1
							{
								OFFSET 0.000000 -8.688499 0.000000
								CHANNELS 3 Xrotation Yrotation Zrotation
								End Site
								{
									OFFSET 0.000000 8.688499 0.000000
								}
							}
						}
						JOINT newVegas:Left_CapeA
						{
							OFFSET 5.115639 -8.608795 -10.395809
							CHANNELS 3 Xrotation Yrotation Zrotation
							JOINT newVegas:Left_CapeA1
							{
								OFFSET 0.000000 -8.688499 0.000000
								CHANNELS 3 Xrotation Yrotation Zrotation
								End Site
								{
									OFFSET 0.000000 8.688499 0.000000
								}
							}
						}
					}
				}
				JOINT newVegas:RightShoulder
				{
					OFFSET -15.263000 10.923401 -0.547700
					CHANNELS 3 Xrotation Yrotation Zrotation
					JOINT newVegas:RightArm
					{
						OFFSET -25.438599 -2.830597 -13.032500
						CHANNELS 3 Xrotation Yrotation Zrotation
						JOINT newVegas:RightForeArm
						{
							OFFSET -29.960503 0.000000 0.000000
							CHANNELS 3 Xrotation Yrotation Zrotation
							JOINT newVegas:RightHand
							{
								OFFSET -27.849251 0.000000 0.000000
								CHANNELS 3 Xrotation Yrotation Zrotation
								JOINT newVegas:RightHandThumb1
								{
									OFFSET -4.487587 -3.305161 6.305391
									CHANNELS 3 Xrotation Yrotation Zrotation
									JOINT newVegas:RightHandThumb2
									{
										OFFSET -5.480453 -3.164139 3.164143
										CHANNELS 3 Xrotation Yrotation Zrotation
										JOINT newVegas:RightHandThumb3
										{
											OFFSET -5.159721 -2.978973 2.978967
											CHANNELS 3 Xrotation Yrotation Zrotation
											End Site
											{
												OFFSET -2.494507 5.926697 1.738678
											}
										}
									}
								}
								JOINT newVegas:RightHandIndex1
								{
									OFFSET -18.578728 -0.527832 5.208049
									CHANNELS 3 Xrotation Yrotation Zrotation
									JOINT newVegas:RightHandIndex2
									{
										OFFSET -3.192009 0.000000 0.000000
										CHANNELS 3 Xrotation Yrotation Zrotation
										JOINT newVegas:RightHandIndex3
										{
											OFFSET -3.835129 0.000000 0.000000
											CHANNELS 3 Xrotation Yrotation Zrotation
											End Site
											{
												OFFSET 0.034599 3.816971 0.371180
											}
										}
									}
								}
								JOINT newVegas:RightHandMiddle1
								{
									OFFSET -18.476105 0.000000 0.000000
									CHANNELS 3 Xrotation Yrotation Zrotation
									JOINT newVegas:RightHandMiddle2
									{
										OFFSET -3.324875 0.000000 0.000000
										CHANNELS 3 Xrotation Yrotation Zrotation
										JOINT newVegas:RightHandMiddle3
										{
											OFFSET -4.596550 0.000000 0.000000
											CHANNELS 3 Xrotation Yrotation Zrotation
											End Site
											{
												OFFSET -0.057701 4.578827 0.399218
											}
										}
									}
								}
								JOINT newVegas:RightHandRing1
								{
									OFFSET -17.732719 0.121887 -4.201567
									CHANNELS 3 Xrotation Yrotation Zrotation
									JOINT newVegas:RightHandRing2
									{
										OFFSET -2.733170 0.000000 0.000000
										CHANNELS 3 Xrotation Yrotation Zrotation
										JOINT newVegas:RightHandRing3
										{
											OFFSET -3.178268 0.000000 0.000000
											CHANNELS 3 Xrotation Yrotation Zrotation
											End Site
											{
												OFFSET -0.119102 3.170624 0.185394
											}
										}
									}
								}
								JOINT newVegas:RightHandPinky1
								{
									OFFSET -15.989624 -0.606689 -7.535461
									CHANNELS 3 Xrotation Yrotation Zrotation
									JOINT newVegas:RightHandPinky2
									{
										OFFSET -2.538986 0.000000 0.000000
										CHANNELS 3 Xrotation Yrotation Zrotation
										JOINT newVegas:RightHandPinky3
										{
											OFFSET -2.593102 0.000000 0.000000
											CHANNELS 3 Xrotation Yrotation Zrotation
											End Site
											{
												OFFSET 0.150902 2.584198 0.152708
											}
										}
									}
								}
							}
							JOINT newVegas:Right_CapeC
							{
								OFFSET -15.715958 -8.608795 -6.935905
								CHANNELS 3 Xrotation Yrotation Zrotation
								JOINT newVegas:Right_CapeC1
								{
									OFFSET 0.000000 -8.688499 0.000000
									CHANNELS 3 Xrotation Yrotation Zrotation
									End Site
									{
										OFFSET 0.000000 8.688499 0.000000
									}
								}
							}
							JOINT newVegas:Right_Sleeve
							{
								OFFSET -0.267448 -0.649994 0.577675
								CHANNELS 3 Xrotation Yrotation Zrotation
								End Site
								{
									OFFSET 0.000000 15.991302 0.000000
								}
							}
						}
						JOINT newVegas:Right_CapeA
						{
							OFFSET -5.115540 -8.608795 -10.395824
							CHANNELS 3 Xrotation Yrotation Zrotation
							JOINT newVegas:Right_CapeA1
							{
								OFFSET 0.000000 -8.688499 0.000000
								CHANNELS 3 Xrotation Yrotation Zrotation
								End Site
								{
									OFFSET 0.000000 8.688499 0.000000
								}
							}
						}
						JOINT newVegas:Right_CapeB
						{
							OFFSET -26.118187 -8.608795 -7.079266
							CHANNELS 3 Xrotation Yrotation Zrotation
							JOINT newVegas:Right_CapeB1
							{
								OFFSET 0.000000 -8.688499 0.000000
								CHANNELS 3 Xrotation Yrotation Zrotation
								End Site
								{
									OFFSET 0.000000 8.688499 0.000000
								}
							}
						}
					}
				}
				JOINT newVegas:Left_Collar
				{
					OFFSET 18.625099 8.655502 8.828100
					CHANNELS 3 Xrotation Yrotation Zrotation
					JOINT newVegas:Left_Collar1
					{
						OFFSET 14.783401 10.540405 -1.259500
						CHANNELS 3 Xrotation Yrotation Zrotation
						End Site
						{
							OFFSET 0.000000 18.199875 0.000000
						}
					}
				}
				JOINT newVegas:Collar_Back
				{
					OFFSET 0.000000 15.630707 -20.132601
					CHANNELS 3 Xrotation Yrotation Zrotation
					End Site
					{
						OFFSET 0.000000 22.523010 0.000000
					}
				}
				JOINT newVegas:Left_Peck
				{
					OFFSET 17.239599 -5.132599 25.482599
					CHANNELS 3 Xrotation Yrotation Zrotation
					End Site
					{
						OFFSET 0.000000 22.523010 0.000000
					}
				}
				JOINT newVegas:Right_Peck
				{
					OFFSET -17.239599 -5.132202 25.482599
					CHANNELS 3 Xrotation Yrotation Zrotation
					End Site
					{
						OFFSET 0.000000 22.523010 0.000000
					}
				}
				JOINT newVegas:Right_Collar
				{
					OFFSET -18.625099 8.655792 8.828100
					CHANNELS 3 Xrotation Yrotation Zrotation
					JOINT newVegas:Right_Collar1
					{
						OFFSET -14.783401 10.539993 -1.259500
						CHANNELS 3 Xrotation Yrotation Zrotation
						End Site
						{
							OFFSET 0.000000 18.199631 0.000000
						}
					}
				}
			}
		}
		JOINT newVegas:Belly
		{
			OFFSET 0.000000 -6.540398 9.014299
			CHANNELS 3 Xrotation Yrotation Zrotation
			End Site
			{
				OFFSET 0.000000 11.566666 0.000000
			}
		}
	}
	JOINT newVegas:ElvisFacialAnim_Joint
	{
		OFFSET 1.000000 -95.330101 -8.825800
		CHANNELS 3 Xrotation Yrotation Zrotation
		End Site
		{
			OFFSET 0.000000 35.315800 0.000000
		}
	}
}
MOTION
Frames: 4
Frame Time: 0.016667
-2.630757 82.746201 2.739438 -6.077186 -42.927684 -3.741971 -0.000000 -0.000001 -0.000000 -44.948102 -1.310012 18.045718 54.511907 -10.807696 -0.266681 -6.500003 -3.487424 -11.885804 -0.000000 -0.000000 -0.000000 -0.000000 -0.000000 0.000000 -3.694524 -10.646331 -22.024729 49.940250 -5.556054 -0.127110 -35.592396 -9.662443 23.991528 0.000000 0.000002 0.000000 0.000004 0.000001 -0.000003 5.854307 4.510919 -1.500639 11.836539 9.037607 -3.083969 11.836537 9.037613 -3.083970 -0.574058 -0.168799 0.033026 -0.574064 -0.168798 0.033025 0.000001 0.000001 0.000000 -0.574061 -0.168802 0.033026 -0.574051 -0.168816 0.033027 -0.000000 0.000003 -0.000001 0.000001 0.000001 -0.000000 1.392487 -0.696039 -7.878119 -17.225676 0.898697 -63.191524 -0.000011 -42.610586 -0.000027 11.900950 -1.704058 21.975118 38.404275 -1.269661 14.611665 3.631940 6.093801 -0.671465 -0.000000 0.000003 -0.000007 0.221394 -3.166087 -9.481599 0.086336 1.003104 -9.837819 -0.000002 -0.000003 0.000001 0.436859 5.174676 -8.894407 0.224010 1.606076 -15.879217 -0.000001 -0.000001 0.000005 2.827864 12.581936 -16.002867 0.312137 1.888467 -18.768842 0.000001 0.000001 -0.000001 2.480838 12.169207 -24.496837 0.246245 1.682222 -16.654062 -0.000000 -0.000002 0.000003 0.000001 0.000002 -0.000003 0.000001 0.000002 -0.000003 0.000000 0.000002 -0.000003 -0.000001 -0.000002 -0.000001 -0.000000 -0.000002 -0.000003 -0.000001 -0.000002 -0.000001 -0.000000 -0.000002 -0.000001 1.410950 9.461514 9.792453 -1.910861 -22.605628 59.287449 0.000005 37.045956 0.000016 -7.499288 9.436048 4.506718 -16.380303 1.669848 -6.671174 11.172356 -26.973570 -3.853781 0.000000 -0.000002 -0.000003 0.245354 -4.322148 6.246042 0.048910 -0.673855 8.301502 0.000002 -0.000000 -0.000000 0.291002 -4.821903 5.957069 0.384910 -1.855651 23.435255 -0.000003 0.000001 0.000000 0.204253 -3.829867 7.019410 0.413567 -1.920364 24.304893 0.000000 0.000001 -0.000000 -0.701320 -2.585901 14.662905 0.245830 -1.494554 18.679920 -0.000002 0.000003 0.000001 0.000002 -0.000000 -0.000000 0.000002 -0.000001 -0.000002 0.000002 -0.000000 -0.000001 -0.000002 -0.000001 -0.000001 -0.000002 0.000000 -0.000001 -0.000002 -0.000001 -0.000001 -0.000002 -0.000001 -0.000001 0.000001 0.000002 -0.000000 0.000001 0.000002 -0.000000 0.000001 0.000002 -0.000000 0.000001 0.000002 -0.000000 0.000001 0.000002 -0.000000 0.000001 0.000002 -0.000000 0.000001 0.000002 -0.000000 -0.000000 -0.000004 0.000000 -0.000000 -0.000001 -0.000000 
-2.056094 82.386383 1.805390 -5.528136 -42.766816 -3.087021 -0.000000 -0.000001 0.000000 -46.347102 -1.772661 17.280580 53.953836 -10.211379 0.013533 -4.568644 -3.522104 -12.269058 0.000000 -0.000004 -0.000000 0.000000 0.000005 -0.000000 -6.260939 -9.986484 -22.372269 52.912526 -5.292568 -0.132830 -36.394065 -10.030234 23.600585 -0.000000 0.000000 -0.000000 -0.000001 0.000001 -0.000001 6.074719 4.345388 -1.283183 11.729624 8.846366 -3.004746 11.732072 8.847531 -3.004968 -0.501966 -0.150225 0.012486 -0.501953 -0.150229 0.012486 0.000001 0.000000 -0.000001 -0.502030 -0.150220 0.012484 -0.501873 -0.150215 0.012483 -0.000001 -0.000000 -0.000001 0.000001 0.000000 -0.000001 1.365372 -1.573961 -8.136091 -16.411543 -0.310934 -62.592748 0.000008 -41.363014 0.000022 10.382849 -3.014418 21.739338 37.695356 -1.195344 14.471262 4.141250 7.880214 -0.669526 0.000001 -0.000002 -0.000003 -0.124244 -2.671149 -13.184771 0.089500 1.021189 -10.017167 -0.000005 0.000002 -0.000002 0.599195 5.465479 -12.059533 0.248855 1.690967 -16.742993 0.000000 0.000001 0.000002 3.414500 12.178847 -20.595276 0.378245 2.072748 -20.681545 0.000004 -0.000001 0.000000 1.292015 10.026706 -25.599097 0.298859 1.848948 -18.361625 0.000002 0.000000 0.000001 0.000001 0.000001 -0.000001 0.000001 0.000001 -0.000001 -0.000000 0.000001 -0.000001 -0.000001 0.000001 0.000003 -0.000001 0.000002 0.000001 -0.000001 0.000001 0.000003 -0.000000 0.000001 0.000003 1.372996 10.312399 9.643782 -0.976061 -20.882904 59.491719 0.000012 36.549609 0.000004 -8.970165 9.438171 4.069746 -16.109493 1.618369 -6.646049 12.758087 -29.331858 -2.763182 0.000002 0.000001 -0.000000 0.303491 -4.191103 7.994629 0.039566 -0.606445 7.465889 -0.000002 -0.000000 -0.000000 0.283951 -4.472626 6.993476 0.360553 -1.798443 22.671254 0.000002 -0.000002 -0.000001 0.122485 -3.119155 8.955510 0.360392 -1.798053 22.665957 0.000001 -0.000001 -0.000002 -0.867950 -2.548562 14.091421 0.291116 -1.622295 20.344868 0.000001 -0.000000 0.000000 0.000001 0.000001 -0.000001 0.000001 -0.000001 0.000000 0.000001 0.000000 -0.000002 0.000000 0.000003 0.000001 0.000000 0.000003 0.000001 0.000000 0.000003 0.000001 0.000001 0.000003 0.000001 -0.000000 0.000001 -0.000000 -0.000000 0.000001 -0.000000 -0.000000 0.000001 -0.000000 -0.000000 0.000001 -0.000000 -0.000000 0.000001 -0.000000 -0.000000 0.000001 -0.000000 -0.000000 0.000001 -0.000000 0.000000 -0.000002 0.000000 -0.000000 -0.000001 0.000000 
-1.410292 82.068504 0.872290 -4.915209 -42.458023 -2.309865 -0.000000 -0.000004 -0.000000 -47.715063 -2.020440 16.457580 52.969418 -9.606670 0.136887 -2.338191 -3.800497 -12.375989 0.000000 0.000001 -0.000000 -0.000000 0.000002 0.000000 -8.766997 -9.360807 -22.768907 55.634148 -5.085531 -0.118707 -37.015281 -10.429718 23.216023 0.000000 0.000001 0.000000 -0.000001 0.000001 0.000000 6.348168 4.237875 -1.056908 11.647086 8.669683 -2.930375 11.651900 8.672146 -2.931024 -0.426653 -0.137856 -0.020554 -0.426673 -0.137844 -0.020558 -0.000003 -0.000001 -0.000000 -0.426659 -0.137852 -0.020558 -0.426502 -0.137866 -0.020551 0.000003 -0.000001 0.000000 -0.000003 -0.000001 -0.000000 1.330791 -2.512978 -8.551108 -15.729724 -1.756057 -61.888802 -0.000007 -40.013058 -0.000011 8.641495 -4.262502 21.266866 36.986110 -1.122193 14.330186 4.661116 9.577719 -0.675489 0.000003 0.000000 -0.000001 -0.489472 -2.080927 -17.644839 0.088541 1.015722 -9.963047 -0.000002 -0.000001 0.000001 0.737738 5.620013 -15.093799 0.265380 1.744895 -17.293914 0.000002 0.000000 0.000001 3.955179 11.891765 -24.971648 0.450230 2.254104 -22.588154 0.000000 -0.000002 -0.000001 0.099108 8.022085 -26.693397 0.360064 2.023940 -20.172660 0.000001 -0.000003 -0.000000 -0.000001 0.000001 -0.000000 -0.000001 0.000001 -0.000000 -0.000002 0.000001 0.000000 0.000001 0.000001 0.000000 0.000001 0.000001 0.000000 0.000001 0.000001 0.000000 0.000001 -0.000000 -0.000000 1.333955 11.281473 9.426770 -0.001901 -19.115073 59.747879 0.000000 35.886517 0.000019 -10.484258 9.509795 3.619792 -15.838794 1.567478 -6.620160 14.522473 -31.607995 -1.544292 0.000001 0.000001 0.000001 0.343573 -3.967182 10.019944 0.037688 -0.591944 7.286342 -0.000002 0.000000 0.000000 0.227643 -3.805261 8.707713 0.334303 -1.734270 21.819406 -0.000000 -0.000000 -0.000001 -0.075490 -2.178937 11.898368 0.338654 -1.745120 21.962921 0.000002 0.000001 0.000001 -1.147858 -2.225973 11.414387 0.365953 -1.811289 22.842451 -0.000001 0.000003 0.000001 0.000001 0.000001 -0.000001 -0.000001 0.000000 -0.000001 0.000001 0.000001 -0.000001 -0.000000 -0.000001 -0.000000 -0.000000 0.000000 -0.000002 -0.000000 -0.000001 -0.000000 -0.000000 -0.000000 -0.000000 -0.000003 -0.000002 0.000001 -0.000003 -0.000002 0.000001 -0.000003 -0.000002 0.000001 -0.000003 -0.000002 0.000001 -0.000003 -0.000002 0.000001 -0.000003 -0.000002 0.000001 -0.000003 -0.000002 0.000001 -0.000000 -0.000002 0.000000 -0.000000 -0.000004 -0.000000 
-0.721554 81.780098 -0.014994 -4.243281 -42.017346 -1.439137 -0.000000 0.000000 0.000000 -49.052281 -2.126345 15.653899 51.709207 -9.044144 0.115384 -0.010011 -4.255778 -12.434550 -0.000000 -0.000001 0.000000 -0.000000 -0.000001 0.000002 -11.171577 -8.779459 -23.230237 58.088573 -4.899875 -0.080393 -37.486820 -10.852587 22.847838 -0.000000 -0.000000 0.000000 0.000001 0.000000 -0.000002 6.636827 4.169916 -0.837135 11.574407 8.502365 -2.859925 11.581486 8.506168 -2.861134 -0.349825 -0.130443 -0.060616 -0.349799 -0.130456 -0.060609 -0.000001 -0.000001 0.000000 -0.349890 -0.130445 -0.060614 -0.349662 -0.130446 -0.060613 -0.000000 0.000001 -0.000000 -0.000001 -0.000001 -0.000000 1.282439 -3.489265 -9.060216 -15.107265 -3.331482 -61.120105 -0.000008 -38.613648 -0.000030 6.736819 -5.437403 20.579474 36.276562 -1.050048 14.188407 5.168902 11.158338 -0.676721 -0.000001 -0.000001 0.000001 -0.810472 -1.416299 -22.399324 0.086200 1.002364 -9.830638 -0.000003 -0.000002 0.000001 0.857255 5.722329 -17.952312 0.278528 1.786613 -17.721149 0.000000 -0.000001 0.000000 4.436184 11.668098 -28.990960 0.526762 2.429756 -24.460844 -0.000002 -0.000001 0.000001 -1.058321 6.204254 -27.727206 0.426412 2.196011 -21.974684 0.000003 0.000002 -0.000002 0.000000 -0.000001 -0.000001 0.000000 -0.000001 -0.000001 -0.000001 -0.000000 -0.000001 0.000001 0.000001 0.000000 0.000001 0.000001 0.000000 0.000001 0.000001 0.000000 0.000000 -0.000000 -0.000000 1.302838 12.291846 9.174153 0.987316 -17.308913 60.020499 0.000003 35.098949 0.000007 -11.988554 9.643881 3.221948 -15.568199 1.517154 -6.593468 16.301529 -33.666576 -0.291776 0.000001 -0.000000 -0.000001 0.356736 -3.734189 11.905664 0.039803 -0.608236 7.487967 -0.000002 0.000001 0.000000 0.103209 -3.009566 10.624439 0.308105 -1.667378 20.936692 -0.000003 0.000000 0.000001 -0.397961 -1.234291 15.092915 0.338308 -1.744258 21.951499 0.000001 -0.000001 -0.000000 -1.410299 -1.700438 7.247707 0.460995 -2.022022 25.683581 0.000001 0.000003 0.000002 0.000000 0.000000 -0.000001 -0.000000 0.000000 -0.000001 0.000000 0.000000 0.000001 -0.000001 -0.000003 -0.000001 -0.000001 -0.000002 0.000000 -0.000001 -0.000003 -0.000001 -0.000001 -0.000002 -0.000000 -0.000000 -0.000001 0.000000 -0.000000 -0.000001 0.000000 -0.000000 -0.000001 0.000000 -0.000000 -0.000001 0.000000 -0.000000 -0.000001 0.000000 -0.000000 -0.000001 0.000000 -0.000000 -0.000001 0.000000 0.000000 -0.000001 -0.000000 -0.000000 0.000000 0.000000 
